<svg width="285" height="50" viewBox="0 0 285 50" fill="none" xmlns="http://www.w3.org/2000/svg">
<path d="M71.2598 11.6108C72.8118 11.5872 74.6118 11.8624 76.3251 12.5634C78.3945 13.4126 80.1896 14.5605 80.9717 16.7598C81.2484 17.5384 81.2604 17.5266 80.4447 17.7077C79.1958 17.9853 77.9517 18.2723 76.7077 18.5663C76.3491 18.651 76.1109 17.2702 75.9545 16.9527C75.2567 15.5413 74.0439 14.8121 72.4966 14.5746C71.0841 14.3605 69.6788 14.4123 68.3313 14.9392C66.3364 15.7154 65.8479 19.3919 67.4626 20.6245C67.9848 21.022 68.6321 21.3278 69.2697 21.5089C70.7448 21.93 72.2608 22.217 73.7431 22.6192C75.2085 23.0167 76.6764 23.426 78.0985 23.9388C80.5481 24.8232 81.8524 26.6744 82.4106 29.0714C83.2312 32.6162 81.6117 35.827 78.1466 37.5605C76.1879 38.5391 74.0824 38.9742 71.9071 38.9601C70.3766 38.9507 68.8246 38.8378 67.3254 38.5555C65.3162 38.1768 63.4585 37.3512 61.9617 35.954C60.9246 34.9849 60.2412 33.7593 59.7455 32.4468C59.6469 32.1834 59.7576 32.014 60.0271 31.9528C61.2711 31.6706 62.5152 31.3648 63.7689 31.1319C64.3079 31.0331 64.8493 32.5315 65.0948 33.0184C65.8287 34.4721 66.9741 35.3847 68.6008 35.7423C70.6149 36.1868 72.6193 36.2551 74.5949 35.5729C75.4997 35.2601 76.2842 34.7614 76.6788 33.8511C77.2058 32.6303 76.7943 29.3019 75.0858 28.7773C73.3436 28.2434 71.5509 27.8647 69.7943 27.3801C68.3 26.9685 66.8008 26.5662 65.345 26.0487C62.9122 25.1784 61.6489 23.3343 61.1364 20.9585C60.3254 17.1902 62.5224 13.6007 66.3701 12.3164C67.862 11.8178 69.3876 11.5966 71.2598 11.6131H71.2622L71.2598 11.6108Z" fill="white"/>
<path d="M46.8705 11.8122C46.0138 13.4917 35.6017 33.0576 33.9895 35.8544C32.2064 38.9522 27.5598 40.0319 24.6722 38.1219C23.0864 37.0728 22.4488 35.5156 22.4247 33.6903C22.379 30.2984 22.2057 22.7642 22.1119 18.7654C22.095 18.0762 21.1638 17.8669 20.8462 18.4784C18.3652 23.2723 12.8812 33.8761 12.4216 34.7535C11.2305 37.0234 9.39929 38.4136 6.81491 38.8534C3.92251 39.3451 1.23465 37.8843 0.459818 35.2216C0.233624 34.4383 0.226405 33.5774 0.214373 32.7471C0.137371 26.7959 0.0868382 20.8448 0.0266803 14.8936C0.0194613 14.1621 0.00742972 13.1765 0.000210761 12.445C-0.0070082 11.7205 0.168653 11.5158 0.924237 11.4547C2.28381 11.3465 3.64578 11.4994 5.01017 11.4241C5.98232 11.37 6.41546 11.8993 6.40824 12.906C6.38899 15.1524 6.41786 17.3988 6.42508 19.6475C6.42749 20.499 6.3938 21.3529 6.43471 22.2044C6.53337 24.232 6.46599 26.2573 6.51893 28.2849C6.55502 29.6727 6.65368 31.0605 6.67053 32.4483C6.68015 33.1422 6.97854 33.5068 7.8015 33.5068C8.62446 33.5068 18.974 11.9063 20.0232 11.5582C20.6055 11.3653 26.0799 11.4453 27.8678 11.5182C28.1854 11.53 28.4357 11.784 28.4453 12.0992C28.479 13.2353 28.556 15.9474 28.5632 17.2247C28.5777 19.8333 28.5584 22.4443 28.5945 25.0529C28.6258 27.5063 28.7557 29.9314 28.6932 32.3778C28.6715 33.2246 29.9781 34.0267 30.6351 32.7259C31.1933 31.6203 40.5948 14.482 41.3239 13.1648C42.2913 11.417 43.5907 11.3418 45.2631 11.417C45.6746 11.4359 46.0884 11.4382 46.4999 11.4476C46.666 11.4406 47.0534 11.5229 46.8705 11.8122Z" fill="white"/>
<path d="M99.2798 24.3895C97.5112 24.3919 95.7426 24.3989 93.9739 24.4225C92.9633 24.4366 92.8622 24.613 92.9392 25.6197C93.0788 27.4427 93.3675 29.2281 94.1207 30.9123C94.8811 32.6106 95.9615 34.0078 97.8096 34.6688C99.0103 35.0992 100.25 35.1627 101.503 35.0781C103.313 34.9534 104.997 34.4665 106.306 33.1539C106.833 32.6247 107.223 31.959 107.663 31.3451C107.868 31.0581 107.996 30.7029 108.243 30.4606C108.47 30.2395 108.794 30.0278 109.1 29.9855C109.976 29.8655 110.231 30.2301 110.017 31.0722C109.584 32.7635 108.9 34.3159 107.714 35.6355C106.665 36.8069 105.346 37.5314 103.871 37.9831C102.081 38.5311 100.252 38.8793 98.363 38.7828C96.4091 38.684 94.5635 38.1995 92.8189 37.3103C91.108 36.4376 89.6979 35.238 88.6247 33.662C87.6381 32.2154 87.1015 30.5829 86.7477 28.887C86.3579 27.0193 86.2063 25.1281 86.3772 23.2275C86.6587 20.0732 87.5851 17.1235 89.9241 14.8748C92.6601 12.245 96.0506 11.2241 99.8357 11.5628C101.763 11.7345 103.59 12.2897 105.245 13.3011C106.706 14.1926 107.738 15.4628 108.549 16.9518C109.67 19.0147 109.805 21.2446 109.793 23.5074C109.791 24.1355 109.603 24.3707 108.977 24.3566C108.799 24.3542 102.023 24.3825 99.2847 24.3872H99.2823L99.2798 24.3895ZM97.7831 22.1126V22.0985C99.0464 22.0985 100.312 22.1267 101.575 22.0914C102.925 22.0538 103.44 21.5127 103.363 20.1884C103.31 19.3111 103.14 18.4407 103.029 17.5657C102.865 16.2884 102.273 15.2699 101.193 14.5337C98.8347 12.9271 95.6006 13.955 94.1087 16.2485C93.1774 17.681 93.0306 19.3205 92.9512 20.9647C92.9103 21.8326 93.1606 22.0961 94.0437 22.1102C95.2926 22.129 96.5391 22.1149 97.7879 22.1149L97.7831 22.1126Z" fill="white"/>
<path d="M56.3291 37.5974C56.3339 37.8467 56.3291 38.0937 56.3219 38.3431C56.305 38.9687 56.1799 39.1028 55.5687 39.1005C54.1923 39.0958 52.8135 39.0887 51.437 39.0746C50.5106 39.0652 50.3349 38.8747 50.3253 37.9291C50.2916 34.3043 50.4144 18.0857 50.3422 13.6164C50.3374 13.2354 50.3301 12.8543 50.3446 12.4756C50.371 11.8452 50.6261 11.4971 51.206 11.4806C52.7629 11.4406 54.3174 11.4524 55.8743 11.4453C56.2786 11.4453 56.2858 11.7488 56.2882 12.0357C56.3122 13.3106 56.3315 14.5855 56.3507 15.8628C56.4013 18.9771 56.2665 33.4786 56.3267 37.6021L56.3291 37.5974Z" fill="white"/>
<path d="M117.077 38.9506C115.075 38.9577 113.657 37.8215 113.676 36.2267C113.693 34.7119 115.099 33.6087 117.021 33.6016C119.043 33.5922 120.328 34.5849 120.364 36.182C120.402 37.8756 119.134 38.9435 117.077 38.9506Z" fill="white"/>
<path d="M120.225 15.3423L120.016 15.2953C119.977 15.006 119.91 14.7166 119.896 14.425C119.855 13.5452 119.819 12.9666 119.811 12.0868C119.809 11.7058 119.643 11.5599 119.27 11.5623C118.736 11.567 118.204 11.5388 117.67 11.5482C116.577 11.5693 115.446 11.5011 114.354 11.5482C113.497 11.5858 113.276 11.8022 113.295 12.6302C113.322 13.7193 113.389 14.6484 113.42 15.7375C113.512 19.0706 113.596 22.4037 113.678 25.7368C113.709 26.9553 113.738 30.0979 113.767 31.3163C113.776 31.7256 114.118 32.0502 114.537 32.0502H119.556C119.989 32.0502 120.336 31.7021 120.326 31.2763C120.324 31.154 120.319 31.0317 120.317 30.9094C120.278 29.4463 120.228 26.0567 120.242 24.5936C120.259 22.7754 120.175 20.9383 120.435 19.1482C120.731 17.0877 122.155 15.9351 124.232 15.6058C125.295 15.4364 126.318 15.5046 127.312 15.9233C127.545 16.0221 127.81 15.8575 127.81 15.6058V11.8916C127.81 11.6917 127.637 11.5341 127.435 11.5435C124.198 11.6964 121.929 12.7502 120.23 15.3376L120.225 15.3423Z" fill="white"/>
<path d="M207.35 32.5422C205.581 33.4619 203.704 33.5443 201.786 33.3114C198.947 32.9656 197.298 31.4578 196.952 28.6987C196.791 27.4073 196.772 26.0736 196.904 24.7775C197.195 21.8725 198.67 20.2471 201.647 19.8543C203.401 19.6238 205.263 19.6685 207.006 19.9719C209.506 20.4094 211.015 22.1218 211.13 24.5893C211.277 27.7507 211.279 30.9262 211.128 34.0876C211.007 36.5692 209.388 38.2534 206.825 38.6439C205.023 38.9191 203.165 38.8697 201.331 38.9026C200.691 38.9144 200.261 39.0696 199.842 39.5871C190.409 51.2448 172.651 52.4538 161.897 41.9746C154.584 34.8474 152.375 26.1512 155.749 16.62C159.101 7.1546 166.264 1.59393 176.462 0.239046C187.293 -1.20052 197.25 3.95322 202.345 13.2328C202.542 13.5927 202.715 13.9667 202.915 14.3665C202.181 14.6653 201.798 14.5006 201.447 13.8585C196.483 4.76238 186.817 -0.0879138 176.332 1.22228C166.433 2.45955 157.967 10.1019 155.895 19.6779C153.807 29.315 158.208 39.3119 166.796 44.4468C178.163 51.2448 192.544 48.2692 200.039 37.5172C200.776 36.4587 201.618 35.9812 202.881 36.0588C203.437 36.0917 204 36.087 204.554 36.0423C206.693 35.8753 207.607 34.7486 207.345 32.5399H207.35V32.5422ZM207.477 26.6546C207.451 23.5379 207.251 22.1759 202.898 22.5735C202.833 22.5782 202.768 22.5923 202.703 22.604C201.529 22.8322 200.85 23.4109 200.756 24.5705C200.65 25.8642 200.614 27.1885 200.778 28.4705C200.855 29.075 201.341 29.8418 201.873 30.1406C204.688 31.7142 207.458 30.1382 207.475 27.0356V26.6522L207.477 26.6546Z" fill="white"/>
<path d="M172.945 14.1016V20.5937C174.689 19.6458 176.465 19.5117 178.282 19.6575C181.369 19.9069 183.222 21.4687 183.609 24.4702C183.821 26.1003 183.804 27.7962 183.602 29.4287C183.277 32.082 181.752 33.6157 179.057 33.992C177.456 34.2155 175.779 34.2366 174.174 34.0438C171.032 33.6674 169.446 31.8962 169.212 28.7936C169.128 27.6481 169.114 26.4931 169.109 25.3429C169.097 22.1109 169.133 18.8813 169.082 15.6493C169.07 14.866 169.337 14.5791 170.095 14.5061C171.005 14.4215 171.905 14.2521 172.945 14.1016ZM180.012 26.9965H179.997C179.997 26.646 180.017 26.2932 179.995 25.9427C179.827 23.2917 178.857 22.4308 176.143 22.5178C175.849 22.5272 175.551 22.5414 175.262 22.5861C173.873 22.8095 173.072 23.5646 172.978 24.9406C172.892 26.2108 172.894 27.4952 172.988 28.763C173.07 29.8686 173.577 30.7836 174.771 31.1623C177.967 32.1737 179.964 30.8071 180.012 27.5681C180.014 27.3775 180.012 27.1847 180.012 26.9918V26.9965Z" fill="white"/>
<path d="M195.345 30.9584C195.148 31.9087 195.027 32.6638 194.818 33.3953C194.763 33.5929 194.443 33.8564 194.248 33.8564C192.874 33.8422 191.483 33.8728 190.126 33.6846C187.794 33.3624 186.663 32.1533 186.535 29.8129C186.41 27.5147 186.446 25.2072 186.432 22.9044C186.417 20.8321 186.43 18.755 186.43 16.6192C187.722 16.4287 188.91 16.2523 190.231 16.0547V20.0041H195.581C195.391 20.9309 195.275 21.7424 195.032 22.5163C194.965 22.7256 194.515 22.935 194.233 22.9444C192.96 22.9891 191.685 22.9632 190.347 22.9632C190.347 25.179 190.287 27.3101 190.373 29.4342C190.414 30.4527 191.233 30.902 192.222 30.9443C193.198 30.9843 194.18 30.9537 195.345 30.9537V30.9584Z" fill="white"/>
<path d="M217.448 31.4264V36.4578H216.332C216.284 36.3754 216.226 36.3213 216.226 36.2672C216.253 32.3978 216.18 28.5237 216.354 24.659C216.452 22.415 217.961 21.0413 220.24 20.7402C221.171 20.6179 222.148 20.6179 223.082 20.7402C225.257 21.0248 226.566 22.1021 226.819 24.2144C227.035 26.0303 226.961 27.9168 226.715 29.7327C226.489 31.4028 225.24 32.4049 223.532 32.7342C221.426 33.1388 219.412 32.9835 217.448 31.4311V31.4264ZM225.875 26.8442C225.849 26.8419 225.822 26.8395 225.794 26.8348C225.794 26.5149 225.796 26.195 225.794 25.8774C225.77 22.9395 224.53 21.7422 221.525 21.7799C221.07 21.7846 220.61 21.8457 220.163 21.9304C218.798 22.1891 217.848 22.9866 217.694 24.3226C217.521 25.8328 217.477 27.3805 217.595 28.8954C217.701 30.2949 218.625 31.2546 220.055 31.5487C221.785 31.9039 223.536 32.0497 224.932 30.6689C225.257 30.349 225.474 29.8504 225.565 29.3987C225.736 28.5613 225.779 27.6981 225.875 26.8442Z" fill="white"/>
<path d="M280.144 26.0142C280.56 23.3632 279.701 22.1989 277.153 22.0177C275.692 21.9143 274.217 21.9989 272.764 21.9989C272.667 21.0157 273.074 20.7475 273.902 20.804C275.338 20.9004 276.797 20.8205 278.219 21.011C280.216 21.2791 281.277 22.3682 281.424 24.3276C281.556 26.1106 281.547 27.9124 281.443 29.6954C281.347 31.3514 280.344 32.4499 278.645 32.6992C277.331 32.8921 275.952 32.9439 274.641 32.7792C272.439 32.5016 271.548 31.222 271.597 28.818C271.64 26.734 272.706 25.5226 274.811 25.238C276.626 24.9933 278.406 25.1015 280.141 26.0165L280.144 26.0142ZM276.496 31.7466C276.496 31.763 276.496 31.7771 276.498 31.7936C277.02 31.756 277.55 31.7513 278.065 31.6736C279.614 31.4408 280.165 30.8621 280.25 29.439C280.353 27.7172 279.792 26.7104 278.305 26.4658C277.131 26.2729 275.897 26.3129 274.701 26.3976C273.772 26.4635 273.091 27.0939 272.939 27.983C272.549 30.2694 272.973 31.5372 275.61 31.7466C275.904 31.7701 276.2 31.7489 276.496 31.7489V31.7466Z" fill="white"/>
<path d="M237.617 26.1265C237.525 25.2562 237.516 24.5506 237.362 23.8731C237.121 22.8076 236.32 22.236 235.259 22.1325C233.957 22.0078 232.641 22.0007 231.329 21.9537C230.913 21.9372 230.494 21.9513 230.083 21.9513C229.979 21.1351 230.186 20.7517 231.016 20.8011C232.489 20.8905 233.981 20.8011 235.434 20.9987C237.586 21.2904 238.611 22.4853 238.68 24.5764C238.733 26.2065 238.731 27.8413 238.693 29.4738C238.652 31.2144 237.761 32.4094 236.014 32.6634C234.546 32.8751 232.997 32.8939 231.531 32.6822C229.727 32.4235 228.855 31.1297 228.803 29.2103C228.745 27.1898 229.604 25.8537 231.387 25.3997C233.449 24.8728 235.478 25.0163 237.619 26.1265H237.617ZM233.791 31.7366V31.7813C234.248 31.7578 234.71 31.7578 235.162 31.7013C236.876 31.4873 237.504 30.8287 237.552 29.2338C237.602 27.6179 236.871 26.6111 235.276 26.3924C234.224 26.2489 233.119 26.2442 232.063 26.3712C230.826 26.5194 230.249 27.2274 230.085 28.4153C229.792 30.5346 230.612 31.5367 232.809 31.7319C233.134 31.7601 233.464 31.7366 233.788 31.7366H233.791Z" fill="white"/>
<path d="M268.345 20.8594H269.471C269.505 21.1322 269.56 21.3769 269.563 21.6191C269.57 23.8914 269.587 26.1613 269.563 28.4336C269.529 31.4562 268.287 32.7334 265.195 32.9522C264.709 32.9851 264.211 32.9686 263.723 32.9334C261.242 32.7428 259.952 31.7173 259.805 29.3439C259.632 26.5471 259.764 23.7338 259.764 20.8711H260.999V21.9061C260.999 24.1454 260.982 26.3848 261.003 28.6241C261.027 30.8611 261.954 31.7431 264.262 31.7925C264.327 31.7925 264.394 31.7925 264.459 31.7949C267.479 31.8325 268.348 31.0022 268.348 28.0713C268.348 25.7073 268.348 23.341 268.348 20.8594H268.345Z" fill="white"/>
<path d="M251.441 17.9353C251.816 17.853 252.156 17.7801 252.649 17.6719V20.8074H257.721C257.868 21.7154 257.536 22.0023 256.706 21.967C255.404 21.9106 254.097 21.9506 252.663 21.9506C252.663 23.4442 252.656 24.8415 252.666 26.241C252.673 27.3278 252.649 28.4169 252.735 29.4989C252.849 30.9126 253.445 31.4818 254.906 31.63C255.811 31.7217 256.728 31.7288 257.738 31.7782C257.652 32.1734 257.579 32.498 257.49 32.9026C256.48 32.8579 255.527 32.8767 254.591 32.7638C252.569 32.5168 251.518 31.5571 251.467 29.5789C251.371 25.7165 251.438 21.8494 251.438 17.933L251.441 17.9353Z" fill="white"/>
<path d="M249.296 20.8986C249.399 21.7807 248.99 21.9853 248.205 21.9689C247.096 21.9454 245.975 21.9877 244.87 22.1053C243.393 22.2629 242.401 23.105 242.257 24.5516C242.113 26.0053 242.065 27.4966 242.238 28.9409C242.435 30.5922 243.419 31.4154 245.13 31.5895C246.523 31.733 247.934 31.7283 249.332 31.7894C249.409 32.5868 249.142 32.9561 248.287 32.8856C247.079 32.7844 245.854 32.855 244.659 32.6903C242.575 32.4034 241.251 31.1661 240.987 29.122C240.804 27.7083 240.775 26.2429 240.934 24.8292C241.201 22.4723 242.515 21.2044 244.942 20.9315C246.36 20.7716 247.813 20.901 249.298 20.901L249.296 20.8986Z" fill="white"/>
<path d="M285 32.853C284.644 32.8695 284.331 32.8836 283.932 32.9048V16.4062H285V32.8554V32.853Z" fill="white"/>
<path d="M141.412 24.6486V48.7284C141.412 48.9895 141.456 49.26 141.393 49.5093C141.388 49.5305 141.381 49.5493 141.374 49.5705C141.263 49.8339 140.881 49.8621 140.717 49.6246C140.681 49.5728 140.65 49.5211 140.628 49.4646C140.558 49.2905 140.611 49.0765 140.611 48.8813C140.611 32.7309 140.609 16.5804 140.628 0.430038V0.418277C140.633 -0.0545212 141.364 -0.0568734 141.393 0.415925C141.393 0.434743 141.393 0.45356 141.393 0.472378C141.417 8.53112 141.412 16.5899 141.412 24.6486Z" fill="white"/>
</svg>
